<svg xmlns="http://www.w3.org/2000/svg" width="512" height="512" fill="none" viewBox="0 0 512 512">
  <path fill="#E5DED3" d="M244.115 164.864C244.115 99.217 190.896 46 125.247 46H62.241c-8.969 0-16.239 7.27-16.239 16.238v2.934c0 98.822 80.114 178.934 178.941 178.934 10.588 0 19.172-8.583 19.172-19.172v-60.07Z"/>
  <path fill="#E6B266" d="M267 347.137C267 412.783 320.219 466 385.868 466h63.006c8.968 0 16.239-7.27 16.239-16.238v-2.933c0-98.823-80.115-178.935-178.941-178.935-10.588 0-19.172 8.584-19.172 19.172v60.071Z"/>
  <path fill="#17934D" d="M46 386.758c0-65.647 53.219-118.864 118.868-118.864h60.073c14.059 0 19.172 8.584 19.172 19.172 0 98.823-80.115 178.934-178.94 178.934h-2.934C53.27 466 46 458.73 46 449.762v-63.004Z"/>
  <path fill="#27C06A" d="M465.115 125.136c0 65.647-53.219 118.864-118.868 118.864h-60.073c-14.059 0-19.172-8.583-19.172-19.172 0-98.822 80.114-178.934 178.941-178.934h2.933c8.968 0 16.239 7.27 16.239 16.238v63.004Z"/>
</svg>
